<svg width="32" height="33" viewBox="0 0 32 33" fill="none" xmlns="http://www.w3.org/2000/svg">
<path d="M27.6133 26.4388L23.08 21.9188C24.5427 20.0554 25.3363 17.7543 25.3333 15.3854C25.3333 13.2758 24.7077 11.2135 23.5357 9.45934C22.3636 7.70521 20.6977 6.33804 18.7486 5.53071C16.7996 4.72337 14.6548 4.51214 12.5857 4.92371C10.5166 5.33529 8.61596 6.35119 7.1242 7.84295C5.63244 9.33471 4.61654 11.2353 4.20496 13.3045C3.79339 15.3736 4.00462 17.5183 4.81196 19.4674C5.61929 21.4165 6.98646 23.0824 8.74059 24.2544C10.4947 25.4265 12.557 26.0521 14.6667 26.0521C17.0355 26.055 19.3366 25.2614 21.2 23.7988L25.72 28.3321C25.844 28.4571 25.9914 28.5563 26.1539 28.6239C26.3164 28.6916 26.4907 28.7265 26.6667 28.7265C26.8427 28.7265 27.017 28.6916 27.1794 28.6239C27.3419 28.5563 27.4894 28.4571 27.6133 28.3321C27.7383 28.2081 27.8375 28.0607 27.9052 27.8982C27.9729 27.7357 28.0077 27.5614 28.0077 27.3854C28.0077 27.2094 27.9729 27.0351 27.9052 26.8727C27.8375 26.7102 27.7383 26.5627 27.6133 26.4388ZM6.66667 15.3854C6.66667 13.8032 7.13586 12.2565 8.01491 10.9409C8.89397 9.62527 10.1434 8.59989 11.6052 7.99439C13.067 7.38888 14.6755 7.23046 16.2274 7.53914C17.7792 7.84782 19.2047 8.60975 20.3235 9.72857C21.4423 10.8474 22.2043 12.2729 22.513 13.8247C22.8216 15.3765 22.6632 16.9851 22.0577 18.4469C21.4522 19.9087 20.4268 21.1581 19.1112 22.0372C17.7956 22.9162 16.2489 23.3854 14.6667 23.3854C12.5449 23.3854 10.5101 22.5426 9.00982 21.0423C7.50953 19.542 6.66667 17.5072 6.66667 15.3854Z" fill="#FDFCFC"/>
</svg>
