<svg width="32" height="33" viewBox="0 0 32 33" fill="none" xmlns="http://www.w3.org/2000/svg">
<path d="M25.3333 9.55216H21.3333V8.21883C21.3333 6.80434 20.7714 5.44779 19.7712 4.4476C18.771 3.4474 17.4145 2.8855 16 2.8855C14.5855 2.8855 13.2289 3.4474 12.2288 4.4476C11.2286 5.44779 10.6667 6.80434 10.6667 8.21883V9.55216H6.66665C6.31303 9.55216 5.97389 9.69264 5.72385 9.94269C5.4738 10.1927 5.33332 10.5319 5.33332 10.8855L5.33332 25.5522C5.33332 26.613 5.75475 27.6304 6.50489 28.3806C7.25504 29.1307 8.27245 29.5522 9.33332 29.5522H22.6667C23.7275 29.5522 24.7449 29.1307 25.4951 28.3806C26.2452 27.6304 26.6667 26.613 26.6667 25.5522V10.8855C26.6667 10.5319 26.5262 10.1927 26.2761 9.94269C26.0261 9.69264 25.6869 9.55216 25.3333 9.55216ZM13.3333 8.21883C13.3333 7.51159 13.6143 6.83331 14.1144 6.33321C14.6145 5.83312 15.2927 5.55216 16 5.55216C16.7072 5.55216 17.3855 5.83312 17.8856 6.33321C18.3857 6.83331 18.6667 7.51159 18.6667 8.21883V9.55216H13.3333V8.21883ZM24 25.5522C24 25.9058 23.8595 26.2449 23.6095 26.495C23.3594 26.745 23.0203 26.8855 22.6667 26.8855H9.33332C8.9797 26.8855 8.64056 26.745 8.39051 26.495C8.14046 26.2449 7.99999 25.9058 7.99999 25.5522L7.99999 12.2188H10.6667V13.5522C10.6667 13.9058 10.8071 14.2449 11.0572 14.495C11.3072 14.745 11.6464 14.8855 12 14.8855C12.3536 14.8855 12.6927 14.745 12.9428 14.495C13.1928 14.2449 13.3333 13.9058 13.3333 13.5522V12.2188H18.6667V13.5522C18.6667 13.9058 18.8071 14.2449 19.0572 14.495C19.3072 14.745 19.6464 14.8855 20 14.8855C20.3536 14.8855 20.6927 14.745 20.9428 14.495C21.1928 14.2449 21.3333 13.9058 21.3333 13.5522V12.2188L24 12.2188V25.5522Z" fill="white"/>
</svg>
